<svg width="304" height="95" viewBox="0 0 304 95" fill="none" xmlns="http://www.w3.org/2000/svg">
<g filter="url(#filter0_d)">
<path d="M152 0L245.531 86.25H58.4693L152 0Z" fill="#262424"/>
<path d="M61.0288 85.25L152 1.36029L242.971 85.25H61.0288Z" stroke="#EBE211" stroke-width="2"/>
</g>
<g filter="url(#filter1_d)">
<path d="M9.34486 61C8.24286 61 7.29552 60.6037 6.50286 59.811C5.71019 59.0183 5.31386 58.071 5.31386 56.969V55.374H9.14186V56.128C9.14186 56.6693 9.17086 56.9787 9.22886 57.056C9.30619 57.114 9.61552 57.143 10.1569 57.143H21.3219C21.8632 57.143 22.1629 57.114 22.2209 57.056C22.2982 56.9787 22.3369 56.6693 22.3369 56.128V53.489C22.3369 52.9477 22.2982 52.648 22.2209 52.59C22.1629 52.5127 21.8632 52.474 21.3219 52.474H9.34486C8.24286 52.474 7.29552 52.0777 6.50286 51.285C5.71019 50.4923 5.31386 49.545 5.31386 48.443V44.151C5.31386 43.049 5.71019 42.1017 6.50286 41.309C7.29552 40.5163 8.24286 40.12 9.34486 40.12H22.1629C23.2649 40.12 24.2122 40.5163 25.0049 41.309C25.7975 42.1017 26.1939 43.049 26.1939 44.151V45.746H22.3369V44.992C22.3369 44.4507 22.2982 44.151 22.2209 44.093C22.1629 44.0157 21.8632 43.977 21.3219 43.977H10.1569C9.61552 43.977 9.30619 44.0157 9.22886 44.093C9.17086 44.151 9.14186 44.4507 9.14186 44.992V47.631C9.14186 48.1723 9.17086 48.472 9.22886 48.53C9.30619 48.588 9.61552 48.617 10.1569 48.617H22.1629C23.2649 48.617 24.2122 49.023 25.0049 49.835C25.7975 50.6277 26.1939 51.575 26.1939 52.677V56.969C26.1939 58.071 25.7975 59.0183 25.0049 59.811C24.2122 60.6037 23.2649 61 22.1629 61H9.34486ZM29.3598 61V40.12H33.5648L41.1338 49.139L48.6738 40.12H52.9078V61H49.0508V45.688L41.1338 55.113L33.1878 45.717V61H29.3598ZM56.3221 61V44.151C56.3221 43.049 56.7185 42.1017 57.5111 41.309C58.3038 40.5163 59.2511 40.12 60.3531 40.12H73.1421C74.2635 40.12 75.2205 40.5163 76.0131 41.309C76.8058 42.1017 77.2021 43.049 77.2021 44.151V61H73.3451V53.982H60.1501V61H56.3221ZM60.1501 50.154H73.3451V44.992C73.3451 44.4507 73.3065 44.151 73.2291 44.093C73.1518 44.0157 72.8521 43.977 72.3301 43.977H61.1651C60.6238 43.977 60.3145 44.0157 60.2371 44.093C60.1791 44.151 60.1501 44.4507 60.1501 44.992V50.154ZM80.4773 61V40.149H97.2973C98.4187 40.149 99.3757 40.555 100.168 41.367C100.961 42.1597 101.357 43.0973 101.357 44.18V49.806C101.357 50.908 100.961 51.8553 100.168 52.648C99.3757 53.4407 98.4187 53.837 97.2973 53.837H96.1663L101.328 59.927V61H97.1523L91.1493 53.837L84.3053 53.866V61H80.4773ZM85.3203 49.98H96.4853C97.0073 49.98 97.2973 49.951 97.3553 49.893C97.4327 49.835 97.4713 49.5353 97.4713 48.994V44.992C97.4713 44.4507 97.4327 44.151 97.3553 44.093C97.2973 44.0157 97.0073 43.977 96.4853 43.977H85.3203C84.779 43.977 84.4697 44.0157 84.3923 44.093C84.3343 44.151 84.3053 44.4507 84.3053 44.992V48.994C84.3053 49.5353 84.3343 49.835 84.3923 49.893C84.4697 49.951 84.779 49.98 85.3203 49.98ZM111.919 61V43.977H103.393V40.12H124.273V43.977H115.776V61H111.919ZM139.337 61C138.235 61 137.288 60.6037 136.495 59.811C135.702 59.0183 135.306 58.071 135.306 56.969V44.151C135.306 43.049 135.702 42.1017 136.495 41.309C137.288 40.5163 138.235 40.12 139.337 40.12H156.128V43.977H140.149C139.608 43.977 139.298 44.0157 139.221 44.093C139.163 44.151 139.134 44.4507 139.134 44.992V56.128C139.134 56.6693 139.163 56.9787 139.221 57.056C139.298 57.114 139.608 57.143 140.149 57.143H156.128V61H139.337ZM163.125 61C162.023 61 161.075 60.6037 160.283 59.811C159.49 59.0183 159.094 58.071 159.094 56.969V44.151C159.094 43.049 159.49 42.1017 160.283 41.309C161.075 40.5163 162.023 40.12 163.125 40.12H175.943C177.045 40.12 177.992 40.5163 178.785 41.309C179.578 42.1017 179.974 43.049 179.974 44.151V56.969C179.974 58.071 179.578 59.0183 178.785 59.811C177.992 60.6037 177.045 61 175.943 61H163.125ZM163.937 57.143H175.102C175.624 57.143 175.923 57.114 176.001 57.056C176.078 56.9787 176.117 56.6693 176.117 56.128V44.992C176.117 44.4507 176.078 44.151 176.001 44.093C175.923 44.0157 175.624 43.977 175.102 43.977H163.937C163.395 43.977 163.086 44.0157 163.009 44.093C162.951 44.151 162.922 44.4507 162.922 44.992V56.128C162.922 56.6693 162.951 56.9787 163.009 57.056C163.086 57.114 163.395 57.143 163.937 57.143ZM183.167 61V40.12H187.372L200.19 55.374V40.12H204.047V61H199.842L186.995 45.717V61H183.167ZM214.778 61V43.977H206.252V40.12H227.132V43.977H218.635V61H214.778ZM229.272 61V40.149H246.092C247.214 40.149 248.171 40.555 248.963 41.367C249.756 42.1597 250.152 43.0973 250.152 44.18V49.806C250.152 50.908 249.756 51.8553 248.963 52.648C248.171 53.4407 247.214 53.837 246.092 53.837H244.961L250.123 59.927V61H245.947L239.944 53.837L233.1 53.866V61H229.272ZM234.115 49.98H245.28C245.802 49.98 246.092 49.951 246.15 49.893C246.228 49.835 246.266 49.5353 246.266 48.994V44.992C246.266 44.4507 246.228 44.151 246.15 44.093C246.092 44.0157 245.802 43.977 245.28 43.977H234.115C233.574 43.977 233.265 44.0157 233.187 44.093C233.129 44.151 233.1 44.4507 233.1 44.992V48.994C233.1 49.5353 233.129 49.835 233.187 49.893C233.265 49.951 233.574 49.98 234.115 49.98ZM257.205 61C256.103 61 255.156 60.6037 254.363 59.811C253.57 59.0183 253.174 58.071 253.174 56.969V44.151C253.174 43.049 253.57 42.1017 254.363 41.309C255.156 40.5163 256.103 40.12 257.205 40.12H270.023C271.125 40.12 272.072 40.5163 272.865 41.309C273.658 42.1017 274.054 43.049 274.054 44.151V56.969C274.054 58.071 273.658 59.0183 272.865 59.811C272.072 60.6037 271.125 61 270.023 61H257.205ZM258.017 57.143H269.182C269.704 57.143 270.004 57.114 270.081 57.056C270.158 56.9787 270.197 56.6693 270.197 56.128V44.992C270.197 44.4507 270.158 44.151 270.081 44.093C270.004 44.0157 269.704 43.977 269.182 43.977H258.017C257.476 43.977 257.166 44.0157 257.089 44.093C257.031 44.151 257.002 44.4507 257.002 44.992V56.128C257.002 56.6693 257.031 56.9787 257.089 57.056C257.166 57.114 257.476 57.143 258.017 57.143ZM277.277 61V40.091H281.105V57.143H298.157V61H277.277Z" fill="#EBE211"/>
<path d="M5.31386 55.374V54.374H4.31386V55.374H5.31386ZM9.14186 55.374H10.1419V54.374H9.14186V55.374ZM9.22886 57.056L8.42886 57.656L8.51457 57.7703L8.62885 57.856L9.22886 57.056ZM22.2209 57.056L22.928 57.7631L22.928 57.7631L22.2209 57.056ZM22.2209 52.59L21.4209 53.19L21.5066 53.3043L21.6209 53.39L22.2209 52.59ZM26.1939 45.746V46.746H27.1939V45.746H26.1939ZM22.3369 45.746H21.3369V46.746H22.3369V45.746ZM22.2209 44.093L21.4209 44.693L21.5066 44.8073L21.6209 44.893L22.2209 44.093ZM9.22886 44.093L9.93596 44.8001L9.93596 44.8001L9.22886 44.093ZM9.22886 48.53L8.52175 49.2371L8.572 49.2874L8.62886 49.33L9.22886 48.53ZM25.0049 49.835L24.2892 50.5336L24.2978 50.5421L25.0049 49.835ZM9.34486 60C8.51316 60 7.81872 59.7127 7.20996 59.1039L5.79575 60.5181C6.77232 61.4947 7.97255 62 9.34486 62V60ZM7.20996 59.1039C6.6012 58.4951 6.31386 57.8007 6.31386 56.969H4.31386C4.31386 58.3413 4.81917 59.5415 5.79575 60.5181L7.20996 59.1039ZM6.31386 56.969V55.374H4.31386V56.969H6.31386ZM5.31386 56.374H9.14186V54.374H5.31386V56.374ZM8.14186 55.374V56.128H10.1419V55.374H8.14186ZM8.14186 56.128C8.14186 56.4106 8.1492 56.6591 8.16797 56.8593C8.17724 56.9582 8.19126 57.0677 8.21518 57.174C8.23126 57.2455 8.27976 57.4572 8.42886 57.656L10.0289 56.456C10.0993 56.55 10.1325 56.6323 10.1448 56.665C10.1592 56.7034 10.1652 56.7296 10.1664 56.735C10.1686 56.7446 10.1645 56.7285 10.1592 56.6727C10.149 56.5636 10.1419 56.3867 10.1419 56.128H8.14186ZM8.62885 57.856C8.82765 58.0051 9.0394 58.0536 9.11084 58.0697C9.21717 58.0936 9.32665 58.1076 9.42551 58.1169C9.62576 58.1357 9.87421 58.143 10.1569 58.143V56.143C9.89817 56.143 9.72129 56.1358 9.6122 56.1256C9.5564 56.1204 9.54021 56.1163 9.54987 56.1185C9.55528 56.1197 9.58143 56.1257 9.61985 56.1401C9.65254 56.1523 9.73487 56.1855 9.82886 56.256L8.62885 57.856ZM10.1569 58.143H21.3219V56.143H10.1569V58.143ZM21.3219 58.143C21.6037 58.143 21.8514 58.1357 22.0489 58.1166C22.1454 58.1073 22.258 58.0926 22.3684 58.0657C22.42 58.0532 22.6991 57.992 22.928 57.7631L21.5138 56.3489C21.5773 56.2854 21.6382 56.2425 21.6824 56.2153C21.7274 56.1875 21.7664 56.169 21.7939 56.1572C21.8465 56.1347 21.885 56.125 21.8957 56.1224C21.9166 56.1173 21.9096 56.1207 21.8563 56.1259C21.7541 56.1358 21.5814 56.143 21.3219 56.143V58.143ZM22.928 57.7631C23.1262 57.5649 23.2013 57.3357 23.2294 57.2418C23.2661 57.1196 23.2868 56.9963 23.3001 56.89C23.327 56.675 23.3369 56.4147 23.3369 56.128H21.3369C21.3369 56.3826 21.3274 56.5477 21.3156 56.642C21.3095 56.6903 21.3061 56.6927 21.3138 56.6672C21.3179 56.6533 21.3295 56.6171 21.3536 56.5689C21.3762 56.5238 21.4245 56.4382 21.5138 56.3489L22.928 57.7631ZM23.3369 56.128V53.489H21.3369V56.128H23.3369ZM23.3369 53.489C23.3369 53.2033 23.3271 52.9433 23.2996 52.7303C23.2862 52.6261 23.2643 52.4982 23.2228 52.3703C23.1953 52.2856 23.1002 51.9995 22.8209 51.79L21.6209 53.39C21.4862 53.289 21.4132 53.1777 21.3798 53.1192C21.3442 53.0569 21.327 53.0076 21.3204 52.9873C21.3079 52.9489 21.3102 52.9405 21.3161 52.9862C21.3273 53.0729 21.3369 53.2333 21.3369 53.489H23.3369ZM23.0209 51.99C22.8114 51.7107 22.5253 51.6155 22.4405 51.588C22.3127 51.5466 22.1847 51.5247 22.0806 51.5112C21.8676 51.4837 21.6075 51.474 21.3219 51.474V53.474C21.5775 53.474 21.738 53.4836 21.8246 53.4948C21.8703 53.5007 21.862 53.5029 21.8235 53.4905C21.8033 53.4839 21.7539 53.4667 21.6916 53.4311C21.6331 53.3976 21.5219 53.3247 21.4209 53.19L23.0209 51.99ZM21.3219 51.474H9.34486V53.474H21.3219V51.474ZM9.34486 51.474C8.51316 51.474 7.81872 51.1867 7.20996 50.5779L5.79575 51.9921C6.77232 52.9687 7.97255 53.474 9.34486 53.474V51.474ZM7.20996 50.5779C6.6012 49.9691 6.31386 49.2747 6.31386 48.443H4.31386C4.31386 49.8153 4.81917 51.0155 5.79575 51.9921L7.20996 50.5779ZM6.31386 48.443V44.151H4.31386V48.443H6.31386ZM6.31386 44.151C6.31386 43.3193 6.6012 42.6249 7.20996 42.0161L5.79575 40.6019C4.81917 41.5785 4.31386 42.7787 4.31386 44.151H6.31386ZM7.20996 42.0161C7.81872 41.4073 8.51316 41.12 9.34486 41.12V39.12C7.97255 39.12 6.77232 39.6253 5.79575 40.6019L7.20996 42.0161ZM9.34486 41.12H22.1629V39.12H9.34486V41.12ZM22.1629 41.12C22.9946 41.12 23.689 41.4073 24.2978 42.0161L25.712 40.6019C24.7354 39.6253 23.5352 39.12 22.1629 39.12V41.12ZM24.2978 42.0161C24.9065 42.6249 25.1939 43.3193 25.1939 44.151H27.1939C27.1939 42.7787 26.6885 41.5785 25.712 40.6019L24.2978 42.0161ZM25.1939 44.151V45.746H27.1939V44.151H25.1939ZM26.1939 44.746H22.3369V46.746H26.1939V44.746ZM23.3369 45.746V44.992H21.3369V45.746H23.3369ZM23.3369 44.992C23.3369 44.7063 23.3271 44.4463 23.2996 44.2333C23.2862 44.1291 23.2643 44.0012 23.2228 43.8733C23.1953 43.7886 23.1002 43.5025 22.8209 43.293L21.6209 44.893C21.4862 44.792 21.4132 44.6807 21.3798 44.6222C21.3442 44.5599 21.327 44.5106 21.3204 44.4903C21.3079 44.4519 21.3102 44.4435 21.3161 44.4892C21.3273 44.5759 21.3369 44.7363 21.3369 44.992H23.3369ZM23.0209 43.493C22.8114 43.2137 22.5253 43.1185 22.4405 43.091C22.3127 43.0496 22.1847 43.0277 22.0806 43.0142C21.8676 42.9867 21.6075 42.977 21.3219 42.977V44.977C21.5775 44.977 21.738 44.9866 21.8246 44.9978C21.8703 45.0037 21.862 45.0059 21.8235 44.9935C21.8033 44.9869 21.7539 44.9697 21.6916 44.9341C21.6331 44.9006 21.5219 44.8277 21.4209 44.693L23.0209 43.493ZM21.3219 42.977H10.1569V44.977H21.3219V42.977ZM10.1569 42.977C9.87012 42.977 9.60985 42.9868 9.39482 43.0137C9.28852 43.027 9.16523 43.0478 9.04301 43.0844C8.94916 43.1126 8.71996 43.1877 8.52175 43.3859L9.93596 44.8001C9.8467 44.8894 9.76109 44.9377 9.71595 44.9602C9.66777 44.9843 9.63158 44.9959 9.6177 45.0001C9.59215 45.0077 9.59453 45.0043 9.64289 44.9983C9.73719 44.9865 9.90226 44.977 10.1569 44.977V42.977ZM8.52175 43.3859C8.29289 43.6147 8.23167 43.8939 8.21913 43.9455C8.19228 44.0558 8.17759 44.1684 8.16826 44.2649C8.14914 44.4625 8.14186 44.7102 8.14186 44.992H10.1419C10.1419 44.7325 10.1491 44.5597 10.159 44.4576C10.1641 44.4042 10.1676 44.3972 10.1625 44.4182C10.1599 44.4289 10.1502 44.4673 10.1276 44.52C10.1159 44.5474 10.0973 44.5865 10.0696 44.6315C10.0423 44.6757 9.99948 44.7366 9.93596 44.8001L8.52175 43.3859ZM8.14186 44.992V47.631H10.1419V44.992H8.14186ZM8.14186 47.631C8.14186 47.9128 8.14914 48.1605 8.16826 48.3581C8.17759 48.4546 8.19228 48.5672 8.21913 48.6775C8.23167 48.7291 8.29289 49.0082 8.52175 49.2371L9.93596 47.8229C9.99948 47.8864 10.0423 47.9473 10.0696 47.9915C10.0973 48.0365 10.1159 48.0756 10.1276 48.103C10.1502 48.1557 10.1599 48.1941 10.1625 48.2048C10.1676 48.2258 10.1641 48.2188 10.159 48.1654C10.1491 48.0633 10.1419 47.8905 10.1419 47.631H8.14186ZM8.62886 49.33C8.82765 49.4791 9.0394 49.5276 9.11084 49.5437C9.21717 49.5676 9.32665 49.5816 9.42552 49.5909C9.62576 49.6097 9.87421 49.617 10.1569 49.617V47.617C9.89817 47.617 9.72129 47.6098 9.6122 47.5996C9.5564 47.5944 9.54021 47.5903 9.54987 47.5925C9.55528 47.5937 9.58143 47.5997 9.61985 47.6141C9.65253 47.6263 9.73486 47.6595 9.82886 47.73L8.62886 49.33ZM10.1569 49.617H22.1629V47.617H10.1569V49.617ZM22.1629 49.617C22.9866 49.617 23.6785 49.9079 24.2893 50.5335L25.7204 49.1365C24.7459 48.1381 23.5431 47.617 22.1629 47.617V49.617ZM24.2978 50.5421C24.9065 51.1509 25.1939 51.8453 25.1939 52.677H27.1939C27.1939 51.3047 26.6885 50.1045 25.712 49.1279L24.2978 50.5421ZM25.1939 52.677V56.969H27.1939V52.677H25.1939ZM25.1939 56.969C25.1939 57.8007 24.9065 58.4951 24.2978 59.1039L25.712 60.5181C26.6885 59.5415 27.1939 58.3413 27.1939 56.969H25.1939ZM24.2978 59.1039C23.689 59.7127 22.9946 60 22.1629 60V62C23.5352 62 24.7354 61.4947 25.712 60.5181L24.2978 59.1039ZM22.1629 60H9.34486V62H22.1629V60ZM29.3598 61H28.3598V62H29.3598V61ZM29.3598 40.12V39.12H28.3598V40.12H29.3598ZM33.5648 40.12L34.3308 39.4772L34.0311 39.12H33.5648V40.12ZM41.1338 49.139L40.3678 49.7818L41.1353 50.6963L41.901 49.7804L41.1338 49.139ZM48.6738 40.12V39.12H48.2064L47.9066 39.4786L48.6738 40.12ZM52.9078 40.12H53.9078V39.12H52.9078V40.12ZM52.9078 61V62H53.9078V61H52.9078ZM49.0508 61H48.0508V62H49.0508V61ZM49.0508 45.688H50.0508V42.9428L48.2851 45.0448L49.0508 45.688ZM41.1338 55.113L40.3703 55.7587L41.1364 56.6647L41.8995 55.7562L41.1338 55.113ZM33.1878 45.717L33.9514 45.0713L32.1878 42.9859V45.717H33.1878ZM33.1878 61V62H34.1878V61H33.1878ZM30.3598 61V40.12H28.3598V61H30.3598ZM29.3598 41.12H33.5648V39.12H29.3598V41.12ZM32.7988 40.7628L40.3678 49.7818L41.8998 48.4962L34.3308 39.4772L32.7988 40.7628ZM41.901 49.7804L49.4411 40.7614L47.9066 39.4786L40.3666 48.4976L41.901 49.7804ZM48.6738 41.12H52.9078V39.12H48.6738V41.12ZM51.9078 40.12V61H53.9078V40.12H51.9078ZM52.9078 60H49.0508V62H52.9078V60ZM50.0508 61V45.688H48.0508V61H50.0508ZM48.2851 45.0448L40.3681 54.4698L41.8995 55.7562L49.8165 46.3312L48.2851 45.0448ZM41.8974 54.4673L33.9514 45.0713L32.4243 46.3627L40.3703 55.7587L41.8974 54.4673ZM32.1878 45.717V61H34.1878V45.717H32.1878ZM33.1878 60H29.3598V62H33.1878V60ZM56.3221 61H55.3221V62H56.3221V61ZM57.5111 41.309L58.2182 42.0161L58.2182 42.0161L57.5111 41.309ZM77.2021 61V62H78.2021V61H77.2021ZM73.3451 61H72.3451V62H73.3451V61ZM73.3451 53.982H74.3451V52.982H73.3451V53.982ZM60.1501 53.982V52.982H59.1501V53.982H60.1501ZM60.1501 61V62H61.1501V61H60.1501ZM60.1501 50.154H59.1501V51.154H60.1501V50.154ZM73.3451 50.154V51.154H74.3451V50.154H73.3451ZM73.2291 44.093L72.522 44.8001L72.5723 44.8504L72.6291 44.893L73.2291 44.093ZM60.2371 44.093L60.9442 44.8001L60.9442 44.8001L60.2371 44.093ZM57.3221 61V44.151H55.3221V61H57.3221ZM57.3221 44.151C57.3221 43.3193 57.6095 42.6249 58.2182 42.0161L56.804 40.6019C55.8275 41.5785 55.3221 42.7787 55.3221 44.151H57.3221ZM58.2182 42.0161C58.827 41.4073 59.5214 41.12 60.3531 41.12V39.12C58.9808 39.12 57.7806 39.6253 56.804 40.6019L58.2182 42.0161ZM60.3531 41.12H73.1421V39.12H60.3531V41.12ZM73.1421 41.12C73.9983 41.12 74.701 41.411 75.306 42.0161L76.7202 40.6019C75.74 39.6216 74.5286 39.12 73.1421 39.12V41.12ZM75.306 42.0161C75.9148 42.6249 76.2021 43.3193 76.2021 44.151H78.2021C78.2021 42.7787 77.6968 41.5785 76.7202 40.6019L75.306 42.0161ZM76.2021 44.151V61H78.2021V44.151H76.2021ZM77.2021 60H73.3451V62H77.2021V60ZM74.3451 61V53.982H72.3451V61H74.3451ZM73.3451 52.982H60.1501V54.982H73.3451V52.982ZM59.1501 53.982V61H61.1501V53.982H59.1501ZM60.1501 60H56.3221V62H60.1501V60ZM60.1501 51.154H73.3451V49.154H60.1501V51.154ZM74.3451 50.154V44.992H72.3451V50.154H74.3451ZM74.3451 44.992C74.3451 44.7063 74.3354 44.4463 74.3079 44.2333C74.2945 44.1291 74.2726 44.0012 74.2311 43.8733C74.2036 43.7886 74.1085 43.5025 73.8291 43.293L72.6291 44.893C72.4945 44.792 72.4215 44.6807 72.3881 44.6222C72.3525 44.5599 72.3352 44.5106 72.3287 44.4903C72.3162 44.4519 72.3185 44.4435 72.3244 44.4892C72.3355 44.5759 72.3451 44.7363 72.3451 44.992H74.3451ZM73.9362 43.3859C73.7425 43.1921 73.52 43.1161 73.4235 43.0865C73.3017 43.049 73.1793 43.0278 73.0744 43.0142C72.8624 42.9869 72.608 42.977 72.3301 42.977V44.977C72.5743 44.977 72.7307 44.9865 72.8184 44.9978C72.8633 45.0036 72.863 45.0065 72.8354 44.998C72.8204 44.9934 72.784 44.9814 72.736 44.957C72.6906 44.9339 72.6081 44.8862 72.522 44.8001L73.9362 43.3859ZM72.3301 42.977H61.1651V44.977H72.3301V42.977ZM61.1651 42.977C60.8784 42.977 60.6181 42.9868 60.4031 43.0137C60.2968 43.027 60.1735 43.0478 60.0513 43.0844C59.9574 43.1126 59.7282 43.1877 59.53 43.3859L60.9442 44.8001C60.855 44.8894 60.7694 44.9377 60.7242 44.9602C60.676 44.9843 60.6399 44.9959 60.626 45.0001C60.6004 45.0077 60.6028 45.0043 60.6512 44.9983C60.7455 44.9865 60.9105 44.977 61.1651 44.977V42.977ZM59.53 43.3859C59.3012 43.6147 59.24 43.8939 59.2274 43.9455C59.2006 44.0558 59.1859 44.1684 59.1765 44.2649C59.1574 44.4625 59.1501 44.7102 59.1501 44.992H61.1501C61.1501 44.7325 61.1574 44.5597 61.1672 44.4576C61.1724 44.4042 61.1758 44.3972 61.1707 44.4182C61.1681 44.4289 61.1585 44.4673 61.1359 44.52C61.1241 44.5474 61.1056 44.5865 61.0779 44.6315C61.0506 44.6757 61.0078 44.7366 60.9442 44.8001L59.53 43.3859ZM59.1501 44.992V50.154H61.1501V44.992H59.1501ZM80.4773 61H79.4773V62H80.4773V61ZM80.4773 40.149V39.149H79.4773V40.149H80.4773ZM100.168 41.367L99.4527 42.0656L99.4612 42.0741L100.168 41.367ZM96.1663 53.837V52.837H94.0078L95.4035 54.4836L96.1663 53.837ZM101.328 59.927H102.328V59.5602L102.091 59.2804L101.328 59.927ZM101.328 61V62H102.328V61H101.328ZM97.1523 61L96.3859 61.6423L96.6856 62H97.1523V61ZM91.1493 53.837L91.9158 53.1947L91.6143 52.835L91.1451 52.837L91.1493 53.837ZM84.3053 53.866L84.3011 52.866L83.3053 52.8702V53.866H84.3053ZM84.3053 61V62H85.3053V61H84.3053ZM97.3553 49.893L96.7553 49.093L96.6985 49.1356L96.6482 49.1859L97.3553 49.893ZM97.3553 44.093L96.5553 44.693L96.641 44.8073L96.7553 44.893L97.3553 44.093ZM84.3923 44.093L85.0994 44.8001L85.0994 44.8001L84.3923 44.093ZM84.3923 49.893L83.6852 50.6001L83.7355 50.6504L83.7923 50.693L84.3923 49.893ZM81.4773 61V40.149H79.4773V61H81.4773ZM80.4773 41.149H97.2973V39.149H80.4773V41.149ZM97.2973 41.149C98.1456 41.149 98.8457 41.4437 99.4528 42.0655L100.884 40.6685C99.9056 39.6663 98.6917 39.149 97.2973 39.149V41.149ZM99.4612 42.0741C100.074 42.6867 100.357 43.3729 100.357 44.18H102.357C102.357 42.8218 101.848 41.6327 100.875 40.6599L99.4612 42.0741ZM100.357 44.18V49.806H102.357V44.18H100.357ZM100.357 49.806C100.357 50.6377 100.07 51.3321 99.4612 51.9409L100.875 53.3551C101.852 52.3785 102.357 51.1783 102.357 49.806H100.357ZM99.4612 51.9409C98.8562 52.546 98.1535 52.837 97.2973 52.837V54.837C98.6838 54.837 99.8952 54.3354 100.875 53.3551L99.4612 51.9409ZM97.2973 52.837H96.1663V54.837H97.2973V52.837ZM95.4035 54.4836L100.565 60.5736L102.091 59.2804L96.9292 53.1904L95.4035 54.4836ZM100.328 59.927V61H102.328V59.927H100.328ZM101.328 60H97.1523V62H101.328V60ZM97.9188 60.3577L91.9158 53.1947L90.3829 54.4793L96.3859 61.6423L97.9188 60.3577ZM91.1451 52.837L84.3011 52.866L84.3096 54.866L91.1536 54.837L91.1451 52.837ZM83.3053 53.866V61H85.3053V53.866H83.3053ZM84.3053 60H80.4773V62H84.3053V60ZM85.3203 50.98H96.4853V48.98H85.3203V50.98ZM96.4853 50.98C96.758 50.98 96.9996 50.9727 97.1938 50.9533C97.2888 50.9438 97.4006 50.9288 97.5109 50.9012C97.5669 50.8872 97.838 50.8245 98.0624 50.6001L96.6482 49.1859C96.7095 49.1246 96.7682 49.0827 96.8117 49.0555C96.8559 49.0279 96.8944 49.0093 96.9219 48.9972C96.9747 48.9741 97.0138 48.9639 97.0258 48.9609C97.0491 48.9551 97.0449 48.9582 96.9948 48.9632C96.899 48.9728 96.7346 48.98 96.4853 48.98V50.98ZM97.9553 50.693C98.2347 50.4835 98.3298 50.1974 98.3573 50.1127C98.3988 49.9848 98.4207 49.8569 98.4341 49.7527C98.4616 49.5397 98.4713 49.2797 98.4713 48.994H96.4713C96.4713 49.2497 96.4617 49.4101 96.4505 49.4968C96.4447 49.5425 96.4424 49.5341 96.4549 49.4957C96.4614 49.4754 96.4787 49.4261 96.5143 49.3638C96.5477 49.3053 96.6206 49.194 96.7553 49.093L97.9553 50.693ZM98.4713 48.994V44.992H96.4713V48.994H98.4713ZM98.4713 44.992C98.4713 44.7063 98.4616 44.4463 98.4341 44.2333C98.4207 44.1291 98.3988 44.0012 98.3573 43.8733C98.3298 43.7886 98.2347 43.5025 97.9553 43.293L96.7553 44.893C96.6207 44.792 96.5477 44.6807 96.5143 44.6222C96.4787 44.5599 96.4614 44.5106 96.4549 44.4903C96.4424 44.4519 96.4447 44.4435 96.4505 44.4892C96.4617 44.5759 96.4713 44.7363 96.4713 44.992H98.4713ZM98.1553 43.493C97.9505 43.22 97.6737 43.1233 97.5846 43.0936C97.4567 43.051 97.3294 43.0285 97.2265 43.0148C97.0164 42.9868 96.762 42.977 96.4853 42.977V44.977C96.7306 44.977 96.8822 44.9866 96.9622 44.9972C97.0043 45.0028 96.9929 45.0045 96.9521 44.9909C96.9305 44.9837 96.8809 44.9658 96.8188 44.9296C96.7599 44.8952 96.6529 44.8231 96.5553 44.693L98.1553 43.493ZM96.4853 42.977H85.3203V44.977H96.4853V42.977ZM85.3203 42.977C85.0336 42.977 84.7733 42.9868 84.5583 43.0137C84.452 43.027 84.3287 43.0478 84.2065 43.0844C84.1126 43.1126 83.8834 43.1877 83.6852 43.3859L85.0994 44.8001C85.0102 44.8894 84.9246 44.9377 84.8794 44.9602C84.8312 44.9843 84.7951 44.9959 84.7812 45.0001C84.7556 45.0077 84.758 45.0043 84.8064 44.9983C84.9007 44.9865 85.0657 44.977 85.3203 44.977V42.977ZM83.6852 43.3859C83.4564 43.6147 83.3951 43.8939 83.3826 43.9455C83.3557 44.0558 83.3411 44.1684 83.3317 44.2649C83.3126 44.4625 83.3053 44.7102 83.3053 44.992H85.3053C85.3053 44.7325 85.3125 44.5597 85.3224 44.4576C85.3276 44.4042 85.331 44.3972 85.3259 44.4182C85.3233 44.4289 85.3136 44.4673 85.2911 44.52C85.2793 44.5474 85.2608 44.5865 85.233 44.6315C85.2058 44.6757 85.1629 44.7366 85.0994 44.8001L83.6852 43.3859ZM83.3053 44.992V48.994H85.3053V44.992H83.3053ZM83.3053 48.994C83.3053 49.2758 83.3126 49.5235 83.3317 49.7211C83.3411 49.8176 83.3557 49.9302 83.3826 50.0405C83.3951 50.0921 83.4564 50.3713 83.6852 50.6001L85.0994 49.1859C85.163 49.2494 85.2058 49.3103 85.233 49.3545C85.2608 49.3995 85.2793 49.4386 85.2911 49.466C85.3136 49.5187 85.3233 49.5571 85.3259 49.5678C85.331 49.5888 85.3276 49.5818 85.3224 49.5284C85.3125 49.4263 85.3053 49.2535 85.3053 48.994H83.3053ZM83.7923 50.693C83.9911 50.8421 84.2029 50.8906 84.2743 50.9067C84.3806 50.9306 84.4901 50.9446 84.589 50.9539C84.7892 50.9727 85.0377 50.98 85.3203 50.98V48.98C85.0616 48.98 84.8848 48.9728 84.7757 48.9626C84.7199 48.9574 84.7037 48.9533 84.7133 48.9555C84.7187 48.9567 84.7449 48.9627 84.7833 48.9771C84.816 48.9893 84.8983 49.0225 84.9923 49.093L83.7923 50.693ZM111.919 61H110.919V62H111.919V61ZM111.919 43.977H112.919V42.977H111.919V43.977ZM103.393 43.977H102.393V44.977H103.393V43.977ZM103.393 40.12V39.12H102.393V40.12H103.393ZM124.273 40.12H125.273V39.12H124.273V40.12ZM124.273 43.977V44.977H125.273V43.977H124.273ZM115.776 43.977V42.977H114.776V43.977H115.776ZM115.776 61V62H116.776V61H115.776ZM112.919 61V43.977H110.919V61H112.919ZM111.919 42.977H103.393V44.977H111.919V42.977ZM104.393 43.977V40.12H102.393V43.977H104.393ZM103.393 41.12H124.273V39.12H103.393V41.12ZM123.273 40.12V43.977H125.273V40.12H123.273ZM124.273 42.977H115.776V44.977H124.273V42.977ZM114.776 43.977V61H116.776V43.977H114.776ZM115.776 60H111.919V62H115.776V60ZM136.495 59.811L135.788 60.5181L135.788 60.5181L136.495 59.811ZM136.495 41.309L135.788 40.6019L135.788 40.6019L136.495 41.309ZM156.128 40.12H157.128V39.12H156.128V40.12ZM156.128 43.977V44.977H157.128V43.977H156.128ZM139.221 44.093L139.928 44.8001L139.928 44.8001L139.221 44.093ZM139.221 57.056L138.421 57.656L138.507 57.7703L138.621 57.856L139.221 57.056ZM156.128 57.143H157.128V56.143H156.128V57.143ZM156.128 61V62H157.128V61H156.128ZM139.337 60C138.505 60 137.811 59.7127 137.202 59.1039L135.788 60.5181C136.765 61.4947 137.965 62 139.337 62V60ZM137.202 59.1039C136.593 58.4951 136.306 57.8007 136.306 56.969H134.306C134.306 58.3413 134.811 59.5415 135.788 60.5181L137.202 59.1039ZM136.306 56.969V44.151H134.306V56.969H136.306ZM136.306 44.151C136.306 43.3193 136.593 42.6249 137.202 42.0161L135.788 40.6019C134.811 41.5785 134.306 42.7787 134.306 44.151H136.306ZM137.202 42.0161C137.811 41.4073 138.505 41.12 139.337 41.12V39.12C137.965 39.12 136.765 39.6253 135.788 40.6019L137.202 42.0161ZM139.337 41.12H156.128V39.12H139.337V41.12ZM155.128 40.12V43.977H157.128V40.12H155.128ZM156.128 42.977H140.149V44.977H156.128V42.977ZM140.149 42.977C139.862 42.977 139.602 42.9868 139.387 43.0137C139.281 43.027 139.158 43.0478 139.035 43.0844C138.941 43.1126 138.712 43.1877 138.514 43.3859L139.928 44.8001C139.839 44.8894 139.753 44.9377 139.708 44.9602C139.66 44.9843 139.624 44.9959 139.61 45.0001C139.584 45.0077 139.587 45.0043 139.635 44.9983C139.729 44.9865 139.895 44.977 140.149 44.977V42.977ZM138.514 43.3859C138.285 43.6147 138.224 43.8939 138.211 43.9455C138.185 44.0558 138.17 44.1684 138.161 44.2649C138.141 44.4625 138.134 44.7102 138.134 44.992H140.134C140.134 44.7325 140.141 44.5597 140.151 44.4576C140.156 44.4042 140.16 44.3972 140.155 44.4182C140.152 44.4289 140.142 44.4673 140.12 44.52C140.108 44.5474 140.09 44.5865 140.062 44.6315C140.035 44.6757 139.992 44.7366 139.928 44.8001L138.514 43.3859ZM138.134 44.992V56.128H140.134V44.992H138.134ZM138.134 56.128C138.134 56.4106 138.141 56.6591 138.16 56.8593C138.17 56.9582 138.184 57.0677 138.207 57.174C138.224 57.2455 138.272 57.4572 138.421 57.656L140.021 56.456C140.092 56.55 140.125 56.6323 140.137 56.665C140.151 56.7034 140.157 56.7296 140.159 56.735C140.161 56.7446 140.157 56.7285 140.152 56.6727C140.141 56.5636 140.134 56.3867 140.134 56.128H138.134ZM138.621 57.856C138.82 58.0051 139.032 58.0536 139.103 58.0697C139.209 58.0936 139.319 58.1076 139.418 58.1169C139.618 58.1357 139.866 58.143 140.149 58.143V56.143C139.89 56.143 139.714 56.1358 139.604 56.1256C139.549 56.1204 139.532 56.1163 139.542 56.1185C139.548 56.1197 139.574 56.1257 139.612 56.1401C139.645 56.1523 139.727 56.1855 139.821 56.256L138.621 57.856ZM140.149 58.143H156.128V56.143H140.149V58.143ZM155.128 57.143V61H157.128V57.143H155.128ZM156.128 60H139.337V62H156.128V60ZM160.283 59.811L160.99 59.1039L160.99 59.1039L160.283 59.811ZM160.283 41.309L160.99 42.0161L160.99 42.0161L160.283 41.309ZM176.001 57.056L176.601 57.856L176.658 57.8134L176.708 57.7631L176.001 57.056ZM176.001 44.093L175.294 44.8001L175.344 44.8504L175.401 44.893L176.001 44.093ZM163.009 44.093L163.716 44.8001L163.716 44.8001L163.009 44.093ZM163.009 57.056L162.209 57.656L162.295 57.7703L162.409 57.856L163.009 57.056ZM163.125 60C162.293 60 161.599 59.7127 160.99 59.1039L159.576 60.5181C160.552 61.4947 161.753 62 163.125 62V60ZM160.99 59.1039C160.381 58.4951 160.094 57.8007 160.094 56.969H158.094C158.094 58.3413 158.599 59.5415 159.576 60.5181L160.99 59.1039ZM160.094 56.969V44.151H158.094V56.969H160.094ZM160.094 44.151C160.094 43.3193 160.381 42.6249 160.99 42.0161L159.576 40.6019C158.599 41.5785 158.094 42.7787 158.094 44.151H160.094ZM160.99 42.0161C161.599 41.4073 162.293 41.12 163.125 41.12V39.12C161.753 39.12 160.552 39.6253 159.576 40.6019L160.99 42.0161ZM163.125 41.12H175.943V39.12H163.125V41.12ZM175.943 41.12C176.775 41.12 177.469 41.4073 178.078 42.0161L179.492 40.6019C178.515 39.6253 177.315 39.12 175.943 39.12V41.12ZM178.078 42.0161C178.686 42.6249 178.974 43.3193 178.974 44.151H180.974C180.974 42.7787 180.469 41.5785 179.492 40.6019L178.078 42.0161ZM178.974 44.151V56.969H180.974V44.151H178.974ZM178.974 56.969C178.974 57.8007 178.686 58.4951 178.078 59.1039L179.492 60.5181C180.469 59.5415 180.974 58.3413 180.974 56.969H178.974ZM178.078 59.1039C177.469 59.7127 176.775 60 175.943 60V62C177.315 62 178.515 61.4947 179.492 60.5181L178.078 59.1039ZM175.943 60H163.125V62H175.943V60ZM163.937 58.143H175.102V56.143H163.937V58.143ZM175.102 58.143C175.375 58.143 175.618 58.1356 175.814 58.1166C175.912 58.1072 176.02 58.0929 176.126 58.0685C176.2 58.0514 176.406 58.0021 176.601 57.856L175.401 56.256C175.492 56.1878 175.571 56.1549 175.605 56.1422C175.643 56.1275 175.67 56.1212 175.676 56.1197C175.688 56.117 175.674 56.1208 175.622 56.1259C175.519 56.1359 175.35 56.143 175.102 56.143V58.143ZM176.708 57.7631C176.906 57.5649 176.981 57.3357 177.009 57.2418C177.046 57.1196 177.067 56.9963 177.08 56.89C177.107 56.675 177.117 56.4147 177.117 56.128H175.117C175.117 56.3826 175.107 56.5477 175.096 56.642C175.09 56.6903 175.086 56.6927 175.094 56.6672C175.098 56.6533 175.11 56.6171 175.134 56.5689C175.156 56.5238 175.204 56.4382 175.294 56.3489L176.708 57.7631ZM177.117 56.128V44.992H175.117V56.128H177.117ZM177.117 44.992C177.117 44.7063 177.107 44.4463 177.08 44.2333C177.066 44.1291 177.044 44.0012 177.003 43.8733C176.975 43.7886 176.88 43.5025 176.601 43.293L175.401 44.893C175.266 44.792 175.193 44.6807 175.16 44.6222C175.124 44.5599 175.107 44.5106 175.1 44.4903C175.088 44.4519 175.09 44.4435 175.096 44.4892C175.107 44.5759 175.117 44.7363 175.117 44.992H177.117ZM176.708 43.3859C176.514 43.1921 176.292 43.1161 176.195 43.0865C176.073 43.049 175.951 43.0278 175.846 43.0142C175.634 42.9869 175.38 42.977 175.102 42.977V44.977C175.346 44.977 175.502 44.9865 175.59 44.9978C175.635 45.0036 175.635 45.0065 175.607 44.998C175.592 44.9934 175.556 44.9814 175.508 44.957C175.462 44.9339 175.38 44.8862 175.294 44.8001L176.708 43.3859ZM175.102 42.977H163.937V44.977H175.102V42.977ZM163.937 42.977C163.65 42.977 163.39 42.9868 163.175 43.0137C163.068 43.027 162.945 43.0478 162.823 43.0844C162.729 43.1126 162.5 43.1877 162.302 43.3859L163.716 44.8001C163.627 44.8894 163.541 44.9377 163.496 44.9602C163.448 44.9843 163.412 44.9959 163.398 45.0001C163.372 45.0077 163.375 45.0043 163.423 44.9983C163.517 44.9865 163.682 44.977 163.937 44.977V42.977ZM162.302 43.3859C162.073 43.6147 162.012 43.8939 161.999 43.9455C161.972 44.0558 161.958 44.1684 161.948 44.2649C161.929 44.4625 161.922 44.7102 161.922 44.992H163.922C163.922 44.7325 163.929 44.5597 163.939 44.4576C163.944 44.4042 163.948 44.3972 163.942 44.4182C163.94 44.4289 163.93 44.4673 163.908 44.52C163.896 44.5474 163.877 44.5865 163.85 44.6315C163.822 44.6757 163.779 44.7366 163.716 44.8001L162.302 43.3859ZM161.922 44.992V56.128H163.922V44.992H161.922ZM161.922 56.128C161.922 56.4106 161.929 56.6591 161.948 56.8593C161.957 56.9582 161.971 57.0677 161.995 57.174C162.011 57.2455 162.06 57.4572 162.209 57.656L163.809 56.456C163.879 56.55 163.913 56.6323 163.925 56.665C163.939 56.7034 163.945 56.7296 163.946 56.735C163.949 56.7446 163.944 56.7285 163.939 56.6727C163.929 56.5636 163.922 56.3867 163.922 56.128H161.922ZM162.409 57.856C162.608 58.0051 162.819 58.0536 162.891 58.0697C162.997 58.0936 163.107 58.1076 163.205 58.1169C163.406 58.1357 163.654 58.143 163.937 58.143V56.143C163.678 56.143 163.501 56.1358 163.392 56.1256C163.336 56.1204 163.32 56.1163 163.33 56.1185C163.335 56.1197 163.361 56.1257 163.4 56.1401C163.433 56.1523 163.515 56.1855 163.609 56.256L162.409 57.856ZM183.167 61H182.167V62H183.167V61ZM183.167 40.12V39.12H182.167V40.12H183.167ZM187.372 40.12L188.138 39.4767L187.838 39.12H187.372V40.12ZM200.19 55.374L199.425 56.0173L201.19 58.1185V55.374H200.19ZM200.19 40.12V39.12H199.19V40.12H200.19ZM204.047 40.12H205.047V39.12H204.047V40.12ZM204.047 61V62H205.047V61H204.047ZM199.842 61L199.077 61.6435L199.377 62H199.842V61ZM186.995 45.717L187.761 45.0735L185.995 42.9733V45.717H186.995ZM186.995 61V62H187.995V61H186.995ZM184.167 61V40.12H182.167V61H184.167ZM183.167 41.12H187.372V39.12H183.167V41.12ZM186.607 40.7633L199.425 56.0173L200.956 54.7307L188.138 39.4767L186.607 40.7633ZM201.19 55.374V40.12H199.19V55.374H201.19ZM200.19 41.12H204.047V39.12H200.19V41.12ZM203.047 40.12V61H205.047V40.12H203.047ZM204.047 60H199.842V62H204.047V60ZM200.608 60.3565L187.761 45.0735L186.23 46.3605L199.077 61.6435L200.608 60.3565ZM185.995 45.717V61H187.995V45.717H185.995ZM186.995 60H183.167V62H186.995V60ZM214.778 61H213.778V62H214.778V61ZM214.778 43.977H215.778V42.977H214.778V43.977ZM206.252 43.977H205.252V44.977H206.252V43.977ZM206.252 40.12V39.12H205.252V40.12H206.252ZM227.132 40.12H228.132V39.12H227.132V40.12ZM227.132 43.977V44.977H228.132V43.977H227.132ZM218.635 43.977V42.977H217.635V43.977H218.635ZM218.635 61V62H219.635V61H218.635ZM215.778 61V43.977H213.778V61H215.778ZM214.778 42.977H206.252V44.977H214.778V42.977ZM207.252 43.977V40.12H205.252V43.977H207.252ZM206.252 41.12H227.132V39.12H206.252V41.12ZM226.132 40.12V43.977H228.132V40.12H226.132ZM227.132 42.977H218.635V44.977H227.132V42.977ZM217.635 43.977V61H219.635V43.977H217.635ZM218.635 60H214.778V62H218.635V60ZM229.272 61H228.272V62H229.272V61ZM229.272 40.149V39.149H228.272V40.149H229.272ZM248.963 41.367L248.248 42.0656L248.256 42.0741L248.963 41.367ZM244.961 53.837V52.837H242.803L244.198 54.4836L244.961 53.837ZM250.123 59.927H251.123V59.5602L250.886 59.2804L250.123 59.927ZM250.123 61V62H251.123V61H250.123ZM245.947 61L245.181 61.6423L245.481 62H245.947V61ZM239.944 53.837L240.711 53.1947L240.409 52.835L239.94 52.837L239.944 53.837ZM233.1 53.866L233.096 52.866L232.1 52.8702V53.866H233.1ZM233.1 61V62H234.1V61H233.1ZM246.15 49.893L245.55 49.093L245.493 49.1356L245.443 49.1859L246.15 49.893ZM246.15 44.093L245.35 44.693L245.436 44.8073L245.55 44.893L246.15 44.093ZM233.187 44.093L233.894 44.8001L233.894 44.8001L233.187 44.093ZM233.187 49.893L232.48 50.6001L232.53 50.6504L232.587 50.693L233.187 49.893ZM230.272 61V40.149H228.272V61H230.272ZM229.272 41.149H246.092V39.149H229.272V41.149ZM246.092 41.149C246.941 41.149 247.641 41.4437 248.248 42.0655L249.679 40.6685C248.701 39.6663 247.487 39.149 246.092 39.149V41.149ZM248.256 42.0741C248.869 42.6867 249.152 43.3729 249.152 44.18H251.152C251.152 42.8218 250.643 41.6327 249.67 40.6599L248.256 42.0741ZM249.152 44.18V49.806H251.152V44.18H249.152ZM249.152 49.806C249.152 50.6377 248.865 51.3321 248.256 51.9409L249.67 53.3551C250.647 52.3785 251.152 51.1783 251.152 49.806H249.152ZM248.256 51.9409C247.651 52.546 246.948 52.837 246.092 52.837V54.837C247.479 54.837 248.69 54.3354 249.67 53.3551L248.256 51.9409ZM246.092 52.837H244.961V54.837H246.092V52.837ZM244.198 54.4836L249.36 60.5736L250.886 59.2804L245.724 53.1904L244.198 54.4836ZM249.123 59.927V61H251.123V59.927H249.123ZM250.123 60H245.947V62H250.123V60ZM246.714 60.3577L240.711 53.1947L239.178 54.4793L245.181 61.6423L246.714 60.3577ZM239.94 52.837L233.096 52.866L233.104 54.866L239.948 54.837L239.94 52.837ZM232.1 53.866V61H234.1V53.866H232.1ZM233.1 60H229.272V62H233.1V60ZM234.115 50.98H245.28V48.98H234.115V50.98ZM245.28 50.98C245.553 50.98 245.795 50.9727 245.989 50.9533C246.084 50.9438 246.195 50.9288 246.306 50.9012C246.362 50.8872 246.633 50.8245 246.857 50.6001L245.443 49.1859C245.504 49.1246 245.563 49.0827 245.607 49.0555C245.651 49.0279 245.689 49.0093 245.717 48.9972C245.77 48.9741 245.809 48.9639 245.821 48.9609C245.844 48.9551 245.84 48.9582 245.79 48.9632C245.694 48.9728 245.53 48.98 245.28 48.98V50.98ZM246.75 50.693C247.03 50.4835 247.125 50.1974 247.152 50.1127C247.194 49.9848 247.216 49.8569 247.229 49.7527C247.257 49.5397 247.266 49.2797 247.266 48.994H245.266C245.266 49.2497 245.257 49.4101 245.245 49.4968C245.24 49.5425 245.237 49.5341 245.25 49.4957C245.256 49.4754 245.274 49.4261 245.309 49.3638C245.343 49.3053 245.416 49.194 245.55 49.093L246.75 50.693ZM247.266 48.994V44.992H245.266V48.994H247.266ZM247.266 44.992C247.266 44.7063 247.257 44.4463 247.229 44.2333C247.216 44.1291 247.194 44.0012 247.152 43.8733C247.125 43.7886 247.03 43.5025 246.75 43.293L245.55 44.893C245.416 44.792 245.343 44.6807 245.309 44.6222C245.274 44.5599 245.256 44.5106 245.25 44.4903C245.237 44.4519 245.24 44.4435 245.245 44.4892C245.257 44.5759 245.266 44.7363 245.266 44.992H247.266ZM246.95 43.493C246.745 43.22 246.469 43.1233 246.379 43.0936C246.252 43.051 246.124 43.0285 246.021 43.0148C245.811 42.9868 245.557 42.977 245.28 42.977V44.977C245.526 44.977 245.677 44.9866 245.757 44.9972C245.799 45.0028 245.788 45.0045 245.747 44.9909C245.725 44.9837 245.676 44.9658 245.614 44.9296C245.555 44.8952 245.448 44.8231 245.35 44.693L246.95 43.493ZM245.28 42.977H234.115V44.977H245.28V42.977ZM234.115 42.977C233.829 42.977 233.568 42.9868 233.353 43.0137C233.247 43.027 233.124 43.0478 233.001 43.0844C232.908 43.1126 232.678 43.1877 232.48 43.3859L233.894 44.8001C233.805 44.8894 233.719 44.9377 233.674 44.9602C233.626 44.9843 233.59 44.9959 233.576 45.0001C233.551 45.0077 233.553 45.0043 233.601 44.9983C233.696 44.9865 233.861 44.977 234.115 44.977V42.977ZM232.48 43.3859C232.251 43.6147 232.19 43.8939 232.178 43.9455C232.151 44.0558 232.136 44.1684 232.127 44.2649C232.108 44.4625 232.1 44.7102 232.1 44.992H234.1C234.1 44.7325 234.107 44.5597 234.117 44.4576C234.123 44.4042 234.126 44.3972 234.121 44.4182C234.118 44.4289 234.109 44.4673 234.086 44.52C234.074 44.5474 234.056 44.5865 234.028 44.6315C234.001 44.6757 233.958 44.7366 233.894 44.8001L232.48 43.3859ZM232.1 44.992V48.994H234.1V44.992H232.1ZM232.1 48.994C232.1 49.2758 232.108 49.5235 232.127 49.7211C232.136 49.8176 232.151 49.9302 232.178 50.0405C232.19 50.0921 232.251 50.3713 232.48 50.6001L233.894 49.1859C233.958 49.2494 234.001 49.3103 234.028 49.3545C234.056 49.3995 234.074 49.4386 234.086 49.466C234.109 49.5187 234.118 49.5571 234.121 49.5678C234.126 49.5888 234.123 49.5818 234.117 49.5284C234.107 49.4263 234.1 49.2535 234.1 48.994H232.1ZM232.587 50.693C232.786 50.8421 232.998 50.8906 233.069 50.9067C233.176 50.9306 233.285 50.9446 233.384 50.9539C233.584 50.9727 233.833 50.98 234.115 50.98V48.98C233.857 48.98 233.68 48.9728 233.571 48.9626C233.515 48.9574 233.499 48.9533 233.508 48.9555C233.514 48.9567 233.54 48.9627 233.578 48.9771C233.611 48.9893 233.693 49.0225 233.787 49.093L232.587 50.693ZM254.363 59.811L255.07 59.1039L255.07 59.1039L254.363 59.811ZM254.363 41.309L255.07 42.0161L255.07 42.0161L254.363 41.309ZM270.081 57.056L270.681 57.856L270.738 57.8134L270.788 57.7631L270.081 57.056ZM270.081 44.093L269.374 44.8001L269.424 44.8504L269.481 44.893L270.081 44.093ZM257.089 44.093L257.796 44.8001L257.796 44.8001L257.089 44.093ZM257.089 57.056L256.289 57.656L256.375 57.7703L256.489 57.856L257.089 57.056ZM257.205 60C256.373 60 255.679 59.7127 255.07 59.1039L253.656 60.5181C254.632 61.4947 255.833 62 257.205 62V60ZM255.07 59.1039C254.461 58.4951 254.174 57.8007 254.174 56.969H252.174C252.174 58.3413 252.679 59.5415 253.656 60.5181L255.07 59.1039ZM254.174 56.969V44.151H252.174V56.969H254.174ZM254.174 44.151C254.174 43.3193 254.461 42.6249 255.07 42.0161L253.656 40.6019C252.679 41.5785 252.174 42.7787 252.174 44.151H254.174ZM255.07 42.0161C255.679 41.4073 256.373 41.12 257.205 41.12V39.12C255.833 39.12 254.632 39.6253 253.656 40.6019L255.07 42.0161ZM257.205 41.12H270.023V39.12H257.205V41.12ZM270.023 41.12C270.855 41.12 271.549 41.4073 272.158 42.0161L273.572 40.6019C272.595 39.6253 271.395 39.12 270.023 39.12V41.12ZM272.158 42.0161C272.767 42.6249 273.054 43.3193 273.054 44.151H275.054C275.054 42.7787 274.549 41.5785 273.572 40.6019L272.158 42.0161ZM273.054 44.151V56.969H275.054V44.151H273.054ZM273.054 56.969C273.054 57.8007 272.767 58.4951 272.158 59.1039L273.572 60.5181C274.549 59.5415 275.054 58.3413 275.054 56.969H273.054ZM272.158 59.1039C271.549 59.7127 270.855 60 270.023 60V62C271.395 62 272.595 61.4947 273.572 60.5181L272.158 59.1039ZM270.023 60H257.205V62H270.023V60ZM258.017 58.143H269.182V56.143H258.017V58.143ZM269.182 58.143C269.455 58.143 269.698 58.1356 269.894 58.1166C269.992 58.1072 270.1 58.0929 270.206 58.0685C270.28 58.0514 270.486 58.0021 270.681 57.856L269.481 56.256C269.572 56.1878 269.651 56.1549 269.685 56.1422C269.723 56.1275 269.75 56.1212 269.756 56.1197C269.768 56.117 269.754 56.1208 269.702 56.1259C269.599 56.1359 269.43 56.143 269.182 56.143V58.143ZM270.788 57.7631C270.986 57.5649 271.061 57.3357 271.089 57.2418C271.126 57.1196 271.147 56.9963 271.16 56.89C271.187 56.675 271.197 56.4147 271.197 56.128H269.197C269.197 56.3826 269.187 56.5477 269.176 56.642C269.17 56.6903 269.166 56.6927 269.174 56.6672C269.178 56.6533 269.19 56.6171 269.214 56.5689C269.236 56.5238 269.285 56.4382 269.374 56.3489L270.788 57.7631ZM271.197 56.128V44.992H269.197V56.128H271.197ZM271.197 44.992C271.197 44.7063 271.187 44.4463 271.16 44.2333C271.146 44.1291 271.124 44.0012 271.083 43.8733C271.055 43.7886 270.96 43.5025 270.681 43.293L269.481 44.893C269.346 44.792 269.273 44.6807 269.24 44.6222C269.204 44.5599 269.187 44.5106 269.18 44.4903C269.168 44.4519 269.17 44.4435 269.176 44.4892C269.187 44.5759 269.197 44.7363 269.197 44.992H271.197ZM270.788 43.3859C270.594 43.1921 270.372 43.1161 270.275 43.0865C270.153 43.049 270.031 43.0278 269.926 43.0142C269.714 42.9869 269.46 42.977 269.182 42.977V44.977C269.426 44.977 269.582 44.9865 269.67 44.9978C269.715 45.0036 269.715 45.0065 269.687 44.998C269.672 44.9934 269.636 44.9814 269.588 44.957C269.542 44.9339 269.46 44.8862 269.374 44.8001L270.788 43.3859ZM269.182 42.977H258.017V44.977H269.182V42.977ZM258.017 42.977C257.73 42.977 257.47 42.9868 257.255 43.0137C257.149 43.027 257.025 43.0478 256.903 43.0844C256.809 43.1126 256.58 43.1877 256.382 43.3859L257.796 44.8001C257.707 44.8894 257.621 44.9377 257.576 44.9602C257.528 44.9843 257.492 44.9959 257.478 45.0001C257.452 45.0077 257.455 45.0043 257.503 44.9983C257.597 44.9865 257.762 44.977 258.017 44.977V42.977ZM256.382 43.3859C256.153 43.6147 256.092 43.8939 256.079 43.9455C256.052 44.0558 256.038 44.1684 256.028 44.2649C256.009 44.4625 256.002 44.7102 256.002 44.992H258.002C258.002 44.7325 258.009 44.5597 258.019 44.4576C258.024 44.4042 258.028 44.3972 258.023 44.4182C258.02 44.4289 258.01 44.4673 257.988 44.52C257.976 44.5474 257.957 44.5865 257.93 44.6315C257.902 44.6757 257.86 44.7366 257.796 44.8001L256.382 43.3859ZM256.002 44.992V56.128H258.002V44.992H256.002ZM256.002 56.128C256.002 56.4106 256.009 56.6591 256.028 56.8593C256.037 56.9582 256.051 57.0677 256.075 57.174C256.091 57.2455 256.14 57.4572 256.289 57.656L257.889 56.456C257.959 56.55 257.993 56.6323 258.005 56.665C258.019 56.7034 258.025 56.7296 258.026 56.735C258.029 56.7446 258.025 56.7285 258.019 56.6727C258.009 56.5636 258.002 56.3867 258.002 56.128H256.002ZM256.489 57.856C256.688 58.0051 256.899 58.0536 256.971 58.0697C257.077 58.0936 257.187 58.1076 257.286 58.1169C257.486 58.1357 257.734 58.143 258.017 58.143V56.143C257.758 56.143 257.581 56.1358 257.472 56.1256C257.416 56.1204 257.4 56.1163 257.41 56.1185C257.415 56.1197 257.441 56.1257 257.48 56.1401C257.513 56.1523 257.595 56.1855 257.689 56.256L256.489 57.856ZM277.277 61H276.277V62H277.277V61ZM277.277 40.091V39.091H276.277V40.091H277.277ZM281.105 40.091H282.105V39.091H281.105V40.091ZM281.105 57.143H280.105V58.143H281.105V57.143ZM298.157 57.143H299.157V56.143H298.157V57.143ZM298.157 61V62H299.157V61H298.157ZM278.277 61V40.091H276.277V61H278.277ZM277.277 41.091H281.105V39.091H277.277V41.091ZM280.105 40.091V57.143H282.105V40.091H280.105ZM281.105 58.143H298.157V56.143H281.105V58.143ZM297.157 57.143V61H299.157V57.143H297.157ZM298.157 60H277.277V62H298.157V60Z" fill="black"/>
</g>
<defs>
<filter id="filter0_d" x="54.4693" y="0" width="195.061" height="94.25" filterUnits="userSpaceOnUse" color-interpolation-filters="sRGB">
<feFlood flood-opacity="0" result="BackgroundImageFix"/>
<feColorMatrix in="SourceAlpha" type="matrix" values="0 0 0 0 0 0 0 0 0 0 0 0 0 0 0 0 0 0 127 0"/>
<feOffset dy="4"/>
<feGaussianBlur stdDeviation="2"/>
<feColorMatrix type="matrix" values="0 0 0 0 0 0 0 0 0 0 0 0 0 0 0 0 0 0 0.25 0"/>
<feBlend mode="normal" in2="BackgroundImageFix" result="effect1_dropShadow"/>
<feBlend mode="normal" in="SourceGraphic" in2="effect1_dropShadow" result="shape"/>
</filter>
<filter id="filter1_d" x="0.313858" y="39.091" width="302.843" height="30.909" filterUnits="userSpaceOnUse" color-interpolation-filters="sRGB">
<feFlood flood-opacity="0" result="BackgroundImageFix"/>
<feColorMatrix in="SourceAlpha" type="matrix" values="0 0 0 0 0 0 0 0 0 0 0 0 0 0 0 0 0 0 127 0"/>
<feOffset dy="4"/>
<feGaussianBlur stdDeviation="2"/>
<feColorMatrix type="matrix" values="0 0 0 0 0 0 0 0 0 0 0 0 0 0 0 0 0 0 0.25 0"/>
<feBlend mode="normal" in2="BackgroundImageFix" result="effect1_dropShadow"/>
<feBlend mode="normal" in="SourceGraphic" in2="effect1_dropShadow" result="shape"/>
</filter>
</defs>
</svg>
